# xmcd
#
# Track frame offsets:
#	150
#	14350
#	37095
#	54157
#	69092
#	82405
#	99505
#	114135
#	130972
#	142670
#	159760
#	178412
#	192525
#	208962
#
# Disc length: 2947
#
# Revision: 2
# Processed by: cddbd v1.5.1PL0 Copyright (c) Steve Scherf et al.
# Submitted via: audiograbber 1.83.01
# Normalized: r1:DSETVAR2
#
DISCID=bf0b810e
DTITLE=Various Artist - Schlager-Zeit
DYEAR=1900
DGENRE=Schlager
TTITLE0=Rex Gildo - Fiesta Mexicana
TTITLE1=Christian Anders - Das Schiff der großen Illusionen
TTITLE2=Denise - Schenk mir keine Rosen
TTITLE3=Guido Hoffmann - Hallo du
TTITLE4=Kristina Bach - Heisser Sand
TTITLE5=Oliver Frank - Samstag Nacht
TTITLE6=Xandra Hag - Schöne Männer
TTITLE7=Elfi Graf - Am schönsten ist es zu Haus
TTITLE8=Heinz Schenk - Es ist alles nur geliehen
TTITLE9=Karina Kim - Warum nicht du
TTITLE10=Adam and Eve - Wenn die sonne erwacht in den Bergen
TTITLE11=Erik Silvester - Ein Koffer voller Träume
TTITLE12=Peter Bäumer - Weisse Rosen
TTITLE13=Werner Leismann - Mendocino
EXTD=
EXTT0=
EXTT1=
EXTT2=
EXTT3=
EXTT4=
EXTT5=
EXTT6=
EXTT7=
EXTT8=
EXTT9=
EXTT10=
EXTT11=
EXTT12=
EXTT13=
PLAYORDER=
